PathFileType	4	(X/Y/Z)	C:\Users\dbl\Desktop\LZH\BX\bx_y_0_901.trc
DataRate	CameraRate	NumFrames	NumMarkers	Units	OrigDataRate	OrigDataStartFrame	OrigNumFrames
50.00	50.00	      4	43	mm	50.00	153	      1220
Frame#	Time	Top.Head			R.Acromium			L.Acromium			Sternum			R.ASIS			L.ASIS			V.Sacral			R.Thigh.Upper			R.Thigh.Front			R.Thigh.Rear			R.Knee.Lat			R.Knee.Med			R.Shank.Upper			R.Shank.Front			R.Shank.Rear			R.Ankle.Lat			R.Midfoot.Lat			R.Toe.Lat			R.Toe.Tip			R.Toe.Med			R.Ankle.Med			R.Midfoot.Sup			R.Heel			L.Thigh.Upper			L.Thigh.Front			L.Thigh.Rear			L.Knee.Lat			L.Knee.Med			L.Shank.Upper			L.Shank.Front			L.Shank.Rear			L.Ankle.Lat			L.Midfoot.Lat			L.Toe.Lat			L.Toe.Tip			L.Toe.Med			L.Ankle.Med			L.Midfoot.Sup			L.Heel			origin1 front left			origin2 front right			origin 3 back right			origin 4 back leftt			
		X1	Y1	Z1	X2	Y2	Z2	X3	Y3	Z3	X4	Y4	Z4	X5	Y5	Z5	X6	Y6	Z6	X7	Y7	Z7	X8	Y8	Z8	X9	Y9	Z9	X10	Y10	Z10	X11	Y11	Z11	X12	Y12	Z12	X13	Y13	Z13	X14	Y14	Z14	X15	Y15	Z15	X16	Y16	Z16	X17	Y17	Z17	X18	Y18	Z18	X19	Y19	Z19	X20	Y20	Z20	X21	Y21	Z21	X22	Y22	Z22	X23	Y23	Z23	X24	Y24	Z24	X25	Y25	Z25	X26	Y26	Z26	X27	Y27	Z27	X28	Y28	Z28	X29	Y29	Z29	X30	Y30	Z30	X31	Y31	Z31	X32	Y32	Z32	X33	Y33	Z33	X34	Y34	Z34	X35	Y35	Z35	X36	Y36	Z36	X37	Y37	Z37	X38	Y38	Z38	X39	Y39	Z39	X40	Y40	Z40	X41	Y41	Z41	X42	Y42	Z42	X43	Y43	Z43	

153	3.040	-222.21967	241.81708	1666.33508	-403.91840	46.71446	1411.82690	-405.21765	442.28873	1414.40210	-426.75165	258.81216	1272.03540	-606.06866	154.13982	1042.61169	-604.87531	381.57162	1045.79089	-796.85150	252.18159	1076.73022	-648.64893	98.48584	889.87701	-596.66742	153.71414	840.16022	-691.49530	91.70631	745.99548	-704.74744	124.19489	594.27521	-672.79565	230.71913	555.72131	-724.78802	125.25607	537.21783	-641.47083	169.49069	544.37097	-754.52509	126.93120	466.39764	-690.48187	143.64720	213.60875	-616.39679	78.04409	166.48482	-570.98315	52.20813	161.83356	-492.19418	93.55280	160.60229	-531.71912	145.43221	163.49782	-638.72607	217.05829	220.26086	-593.31818	189.03732	169.33310	-717.74725	212.97267	170.24747	-648.66748	440.13266	880.06232	-594.88867	381.80646	833.30811	-684.12500	444.95172	744.80389	-710.17139	419.80759	620.73425	-661.89734	317.43033	570.69006	-708.70599	417.33804	558.10974	-649.47266	377.22653	539.52325	-751.69958	421.47174	500.80920	-683.49298	416.73700	210.85445	-585.83447	469.29584	163.65939	-546.49133	480.25195	159.21552	-488.48492	426.89929	168.09662	-525.45398	387.79965	177.29320	-645.82379	328.95288	209.97495	-595.05817	349.13065	170.41092	-732.36456	344.28287	164.92784	-444.19293	448.61368	147.90813	-450.32391	75.69721	143.85112	-806.17108	82.51344	142.64935	-799.01093	457.61975	145.34137	
154	3.060	-212.65112	240.15637	1656.29150	-398.59943	45.96528	1404.88391	-399.36972	441.40417	1408.16675	-424.27942	258.48297	1267.31409	-608.00085	153.90529	1041.56812	-606.73505	381.64316	1044.79980	-798.35608	252.29431	1077.94812	-651.25891	98.46655	889.49725	-598.89697	153.57886	839.85394	-693.78424	91.74552	745.57043	-706.24420	124.27274	594.13147	-674.15094	230.64458	555.65442	-726.11090	125.32276	537.10474	-642.80835	169.51620	544.37018	-755.57111	126.95139	466.10748	-690.61420	143.55386	213.61974	-616.46527	77.93319	166.41750	-571.01135	52.16277	161.76442	-492.33759	93.44327	160.82507	-531.78589	145.42430	163.55104	-638.76050	217.03882	220.44431	-593.34229	188.98210	169.47400	-717.81049	212.87445	170.29056	-650.45801	440.08157	879.73260	-596.67932	381.61566	833.05939	-685.66223	445.16800	744.53870	-711.31396	420.00070	620.48383	-663.18616	317.47000	570.61749	-709.75305	417.50287	557.91089	-650.57727	377.29578	539.48047	-752.56049	421.78885	500.53146	-683.49792	416.84357	210.91685	-585.81464	469.28772	163.61720	-546.46387	480.24878	159.23422	-488.48563	426.88159	168.05287	-525.52496	387.76953	177.21814	-646.16406	329.18951	209.83780	-595.11444	349.21405	170.49683	-732.24988	344.25391	164.98100	-444.20459	448.61459	147.89935	-450.33704	75.70464	143.86200	-806.18396	82.52713	142.63359	-798.78406	457.92084	145.48360	
155	3.080	-203.60950	238.65286	1646.26794	-393.45441	45.25628	1397.87793	-393.71442	440.54025	1401.80933	-421.83218	258.14059	1262.68335	-610.02185	153.69159	1040.79150	-608.60236	381.72873	1043.83130	-799.71570	252.40909	1079.15881	-653.71039	98.47907	889.16193	-601.10150	153.49870	839.52539	-695.88318	91.78954	745.16473	-707.61774	124.35358	593.98834	-675.43201	230.59349	555.43726	-727.29047	125.28616	537.07153	-644.01917	169.57732	544.42236	-756.46948	126.91899	465.85172	-690.70227	143.49591	213.61588	-616.47729	77.85469	166.37411	-571.01563	52.08979	161.73570	-492.44086	93.34937	161.00146	-531.83875	145.42296	163.57928	-638.82880	217.04938	220.54430	-593.34900	188.89096	169.63908	-717.83105	212.77461	170.33691	-652.14783	440.07211	879.43115	-598.35608	381.45615	832.86584	-687.03015	445.38663	744.30011	-712.32349	420.22076	620.27728	-664.34344	317.53760	570.59076	-710.72101	417.70306	557.70679	-651.54858	377.37424	539.44598	-753.30902	422.08151	500.19595	-683.45917	416.96921	210.98901	-585.78717	469.29822	163.58110	-546.43768	480.25006	159.24620	-488.49557	426.89694	167.99907	-525.57239	387.73013	177.12975	-646.42792	329.38196	209.71762	-595.22009	349.34506	170.54800	-732.12274	344.25571	165.05290	-444.21515	448.62500	147.89513	-450.34921	75.72832	143.86191	-806.20258	82.54552	142.62697	-798.64618	458.14011	145.59993	
156	3.100	-195.05466	237.28850	1636.22302	-388.43237	44.58429	1390.72522	-388.23737	439.72668	1395.27466	-419.41025	257.78485	1258.14294	-612.13135	153.56989	1040.23816	-610.44202	381.78427	1042.88171	-800.85242	252.57616	1080.30066	-655.99323	98.51180	888.82861	-603.14691	153.39716	839.20856	-697.80762	91.84013	744.83887	-708.88440	124.41450	593.87811	-676.58636	230.62308	555.17242	-728.34167	125.23557	537.02289	-645.11920	169.65849	544.50806	-757.25879	126.85868	465.62766	-690.75836	143.46474	213.60561	-616.45068	77.82809	166.35054	-571.01093	52.04209	161.71245	-492.48477	93.29868	161.08481	-531.86279	145.43973	163.56709	-638.94299	217.08372	220.55544	-593.33881	188.79582	169.76337	-717.82092	212.69194	170.35962	-653.77350	440.05429	879.17761	-599.87476	381.34244	832.65637	-688.23083	445.60220	744.09924	-713.19366	420.45840	620.13080	-665.38104	317.64807	570.57355	-711.53705	417.95944	557.55469	-652.34338	377.47360	539.47272	-753.93494	422.33691	499.87424	-683.41028	417.11765	211.05621	-585.75604	469.30267	163.56709	-546.40979	480.26343	159.26514	-488.50928	426.93152	167.94527	-525.58844	387.67020	177.05910	-646.56598	329.48221	209.67204	-595.33270	349.47437	170.55893	-732.02258	344.31567	165.12709	-444.21722	448.62976	147.89557	-450.35535	75.75790	143.84285	-806.22290	82.56850	142.62569	-798.63947	458.22583	145.63451	
